<svg xmlns="http://www.w3.org/2000/svg" viewBox="0 0 1915.47 2333.61"><title>okwine</title><g id="Layer_2" data-name="Layer 2"><g id="Layer_1-2" data-name="Layer 1"><path id="oklogo" d="M40.9,742l85.5,26.3q4.2-172.8,11-232.9Q151.8,410.9,195,345.7a15.28,15.28,0,0,1,11.9-7.6q6.75,0,10.2,4.2c10.7,11.9,22.3,33,34.7,63.5q-31.35,118.5-31.3,273.5,0,30.45.8,62.7l86.4,26.3q3.45-150.75,13.5-228.7,16.05-118.5,55.9-186.3c2.3-3.9,5.9-5.9,11-5.9q6.75,0,10.2,4.2,48.3,66,48.3,142.3,0,111.75-87.2,193.1l63.5,78.7q72.9-68.55,72.8-191.4,0-88-36.8-182.9T361.1,222.9c-10.7-7.9-20-7.9-28,0q-40.65,58.5-66.9,133.8-40.65-76.2-86.4-133.8-12.75-11.85-27.9,0Q39.25,386.4,39.3,679.4C39.2,699.7,39.8,720.6,40.9,742ZM1122.8,2068.7c-73.2,54.1-171.7,98.2-279,130.4-179.5-48.6-350.5-123.6-483.2-223.6,68.5,6.8,132.1,13.1,212.2,8.2,143.9-8.8,320.2-83.3,325.6-231.9,3.1-86.2-71.2-170.1-181.7-210.3,48.1-80.5,71.1-176.4,71.7-260.4q.9-113.4-32.3-203.8-7.8-13.5-21.3-5.7c-123.8,86.7-280.4,234-198,413.2l85.2-66.2c-54.1-76.7-49.7-168.7,39.3-238.2,6.4-5.6,16.2-7.4,20,7.1,32.9,124.1,4.3,253.8-78.1,352.7l58.1,74.4a394.69,394.69,0,0,0,37.3-45.4c68.3,22,109.6,69.4,113.8,124.6,13.3,174.4-204.1,258.4-386.8,256.4-20.9-.2-42-1-63.1-2.3-14.1-1.7-27.9-2.9-41.3-3.5-91.9-77.4-161.5-168.3-196.7-272.2-54.9-161.8-50.8-354.2,29-474.7,4.6-7.3,15.8-11.1,22-3.4q16.05,17.7,34.7,63.5c-29,109.7-33.5,223.5-30.5,336.2l86.4,26.3c2.9-129.4,1.9-300,69.4-415,4.1-7.1,15.9-8.3,21.2-1.7,79,108.1,57.9,245.1-39,335.4l63.5,78.8c148-139.4,45.9-412.7-61.8-542.8q-16.05-11.85-27.9,0-40.65,58.5-66.9,133.8-40.65-76.2-86.4-133.8-12.75-11.85-27.9,0c-120.8,175.3-145.6,423.6-58.2,610.8,44.3,95.1,117.6,182,210.1,259.1-317.1,19.4-381.5,331,2.3,381.3,183.1,24,401.8-10.3,589.9-81.1,321,95.9,661.8,116.3,883.6,37,326.4-116.6,166-403.5-185-331.5-17.8,2.5-15.1,24.6,2,23,255.4-39.2,358.5,148.8,141.9,233.6-190.8,74.8-489.4,76.5-777.1,11.2,88.9-39.1,168.4-86.4,230.5-139.4,1.9,10.1-1.7,27,5.6,48.8,12.2,36.7,26.6-6.5,35.9,20.3,10.9,31.8,35.2,46.3,44.8,53.3,26.9,19.7,9.9-30.8,23.4-21.7,67.5,45.5,26.5-11.7,70-2.7,27.7,5.7,38.1-11.8,33-38.2s48-13,37.3-47.6c-3.4-11-17.9-30-.7-19.4,31.2,19.4,46.3,13.2,42.8-11.3-2.6-18.4,72.8,24.8,50.6-30.8,30.6-6.3,44.8-37.7,15.2-50.7-49.7-21.9,54.2-51-20-68.6-28.7-6.8-29.7-34-2.7-41.1,23.2-6.1,62.9-11.9,32.9-55.6-13.6-19.8,50.6-39.1,19-60.8-44.6-30.5-7.7-55.2-32.3-71.4-26.6-17.4-45.4,2.1-59.7-1.5-13.4-3.3-4.8-70-47.2-25.3-40.7,42.9-15.9-6.8-46-9-35.7-2.6-56.7,46.2-56.8,46.1-39.7-49.1-62.1,75.6-62.4,2.9-.2-40.6-17.9-8.6-29-29.8-32.7-62.6-55-10.4-58.5-11.6-20.3-21.7-54.3-23.8-61.3,13.6-1.9,10.4.1,20.9-9.6,19.6-55-7.4-18.3,45.3-36.6,51.3-51.3,16.9,38.9,77-26.1,60-32.1-8.4-36.5,11.1-34.2,35.3,1.4,15.1-54.8,7.8-34.8,47.3,12,23.7,3.8,8.5-3.3,17.2-25.8,31.3,26.1,67.9,25.2,70.3-14,53.2,75,112.9,155.4,101.5Zm-350,149.7c-175.9,42.9-365.4,54.8-502.4,28.4-259.4-50-210.8-254,30-271.9C432.5,2075.7,597.8,2158.3,772.8,2218.4Zm256.9-227c36.3,22.3,75.3,26.3,107.5,19,17.2-3.9,17.5,3.7,4.3,8.5-50,18-87.4-.5-114.3-17.9C1020.2,1996.4,1019.5,1985.1,1029.7,1991.4Zm326,47.9c-79.6-14-72.4-53-50.2-51.9C1320.6,1988.1,1325.2,2010.8,1355.7,2039.3Zm-167.5-119.6c9.2-15.2,17.5-1.1,7.9,13.7-16.5,25.6-67.3,49.4-128.2,33.2-7.9-2.1-15.8-14.2,1.8-11.4C1120.8,1963.3,1168.7,1952.1,1188.2,1919.7ZM987.4,1854c54,4-26.8-45.9,30-39.1,24.9,3,131.1,67.6,86.5,76.9-22.4,4.7-59.5-21.5-80.6-26.6-15.3-3.7-17.7,6.9-5.3,14.9,10.3,6.7,47.8,25.2,43.6,25.8C953.2,1920.1,943.2,1850.7,987.4,1854Zm461.5,12c-81.4,14.7-80.6-34.7-41.2-22.5C1416.9,1846.4,1430.5,1858.3,1448.9,1866Zm-214.6-120c14,29.3,4.7,79.3-13.2,54.9C1214.1,1791.4,1224.4,1771.7,1234.3,1746Zm-61.5-84.6c28.1,8.4,9.6,76.9,34.4,49.1,11.3-12.7,11.5,7.8,9.7,24.2-6.6,59.2-32.9,53.8-18.3,15.7,6.1-16-27.6-37.5-18,4.1,7.7,33.1-21.4-12.6-43.7-29.8-13.2-10.1-22.9-5.6-13.2,8.5,12.7,18.4,50.6,50.7,2.8,35.7-76.9-24.1-20.2,26.4,23.3,24.8,29.2-1.1,57.3,48.1,33.1,101.5-16,35.4-45.1,43.5-76.7,43.9-36.5.4-41.3-11-22.1-12,23.2-1.2,72.2-1.8,74.1-32.9,2.7-43.8-77.4-64.6-91.3-83.4-73.7-99.3,20.1-7.6,6.5-72.7-1.6-7.8-12.7-15.3-8.5-25,8.8-20.6,35.5,23.6,44.9,6,4-7.5-13.5-39.9-7.3-44.1,32.9-45.5,42.4,80.5,66-12.6C1169,1660.9,1171.4,1661,1172.8,1661.4Zm237.8,12c14.4-10.2,5.1,59,26.5,41.9,46.8-37.4,62.2-10.3,54.8,9.4-12.5,32.9,41.9,26.1,24.7,46.5-15.6,18.7-58.8,20.1-20.7,51,30,24.3-17.8,33.9-58.5,18.6-17.3-6.5-32.3-17.7-50.7-15.9-28.8,2.8-40.8,46.8,5.1,58.2,20,5,62.1-13.7,49.7,20.6-9,25,71.1,14,40.5,44.4-49.1,48.7,54.6,49.4,4.9,60.6-31.5,7.1,16.4,48.8-49.3,19.9-41.7-18.4-14.5,28.8-15.8,30.4-16.4,19.4-85.9-83.7-110.4-94.7-31.2-14-85.3,48.2,20.8,86,83.6,29.8,35.6,62.7,25.5,58.3-49.7-21.9-9.6,39-10.6,42-11.1,31.7-57.5-26.5-61.1,6.9-.5,4.1,7.3,8,5.3,11.4-13.6,22.9-55.3-63.1-49.2,2,2,21.2-27.1-7.6-30.6-13.1-6.6-10.6-8.5-39-23.3-45.9-10-4.6-16.4,32.2-19.5-22.1-.8-14.5,48.7-69.5,42,5.5-1.5,16.4,32.2,67.4,23.3,7.6-4.2-28.4,14.8-3.6,26.8,12.2,6.9,9,65.6,38.5,37.3,2.8-22.7-28.5-60.3-47.4,3.7-29.9,43.8,11.9,47.3-6.5,24.4-9.3-1.5-.2-.5-4-2-4.7-36.4-16.1-54.8-29.8-105.9-35.7-21.4-2.5,7.8-81.1,12.9-86.9,33.7-38.2,102.5-18.5,118.6,24.7,13.1,35.2,49.6,38.7,25,13.8-16.8-17,31-1.6,40.7,14,4.6,7.4,30.9,10.6,37.7-1,7.2-12.3-78.1-38.4-67.8-56.9,9.8-17.4,44,11.2,58.6,5.9,37.5-13.6-71-34.5-86.5-31-18.8,4.3-6.1-18.5,12.6-15.6,33.3,5.1,17.8-19-29.7-15.8-26.9,1.8-14.4-17.1,1.7-24.1,18.7-8.3,14.7-19.9-4-14.2-13.1,3.9-28.1,19.7-39.5,27.2-10.7,7.1-18.3,6.5-15-3.8,2.7-8.3,12.4-21.4,24.3-27.6,23.7-12.5,15.3-21.8-.2-15.1-19.6,8.5-39.3,33.9-36.6,20.9,17.4-83.9,155.8-37.9,159.6-38.7,28.4-5.6,54.5-60.2,17.7-30.2-16,13.1-59.4,9.8-29.2-6.1,19.3-10.1,49.5-19.9,56.1-48.9,14.9-65.7-60.7,45.1-79.4,43.6-6.3-.5,16.7-29.4,17.5-58.1,1-34.5-57,64.9-57.4,65.7-2.4,4.8,4.5-39.5-7.9-33.1-15.3,7.8-32.2,34.9-7.4-10.3,30.8-56-12.7-40.9-33.6,15.7-6.2,16.9-5.6,63.6-15.7,23.6-22.3-88.7-10,54.1-61.4,99.7-9.4,8.3-20.9-45.4-19.3-63,.4-5,10.1,6.5,10.9,7.8,11.6,18.9,49.5,15.4,33.8-67-4-20.8,3.7-32.1,16.2-42.8,17.6-15.1,6,49.7,24.5,20.4.4-.6,8.4-13.5,17.6-32.1,20.6-41.9,46.7-19.4,43.6,8.3-1.5,13.2,17.1,14.2,24.7.4C1387.6,1697.9,1397.7,1682.5,1410.6,1673.4Zm-188.1,227.7c2.8-9.4,12.1-11.1,7.7,6.6-19.1,78.2-81.3,107.2-152.6,88.1-7.9-2.1-15.8-14.2,1.8-11.4C1150.1,1995.6,1201.1,1973.9,1222.5,1901.1Zm-229.8,91.4c30.1,31.9,67.3,47.1,100.6,49.7,17.8,1.4,16.2,8.7,2.1,9.3-53.3,2.4-85.4-26.2-107.5-50.7C982.2,1994.4,984.2,1983.5,992.7,1992.5Zm-797-1941c-10.4-10.8-13.7-4-12.1,4.1,38.1,198.4,288.6,72,539.6-9.4V256.9c-6.9-11.9-14.3-23.3-22-34.3-7.3-7.3-14.7-7.3-22,0-109,129.9-213,403.8-65.2,542.8l63.5-77.9c-96.3-89.7-116.2-225.3-39-332.8,5-6.9,17.2-5.1,21.2,1.7,46.2,78.1,63.5,176.3,63.5,266V870c-120.5,20.6-235,46-350.6,84.6,24.7,96.3,68.9,171.2,158.2,194.6,69.2-36.4,153.1-230.4,284.7-113V878c491.3-66.2,975.1-47,1063,329.2,182.1-345.1-374.3-463.5-1063-351.7V0C646.8,50.7,308.1,169.1,195.7,51.5ZM862.9,742l85.5,26.3c3.1-127-4-312.1,68.6-422.6,4.7-7.2,15.4-11,22-3.4,10.5,12.1,22.3,33,34.7,63.5-29,109.6-33.5,223.4-30.5,336.2l86.4,26.3c2.9-129.8,2-299.7,69.4-415,4.2-7.1,16.2-8.4,21.2-1.7,79.5,107.4,57.4,245.5-39,335.4l63.5,78.7c148.1-139.4,45.8-412.8-61.8-542.8q-16-11.85-27.9,0-40.65,58.5-66.9,133.8a957.07,957.07,0,0,0-55.6-92c47.1-92.8,130.4-213.3,248.3-248.5,12.9-3.8,6.8-16.1-3.5-15.1C926.6,86.7,847.9,455.7,862.9,742Zm503.1,0,85.5,26.3c3.1-126.2-4.1-312.9,68.6-422.6,4.6-7.3,15.8-11.1,22-3.4,10.7,11.9,22.3,33,34.7,63.5-29,109.7-33.5,223.5-30.5,336.2l86.4,26.3c2.9-129.4,1.9-300,69.4-415,4.1-7.1,15.9-8.3,21.2-1.7,79,108.1,57.9,245.1-39,335.4l63.5,78.7c148-139.3,45.9-412.7-61.8-542.8-10.7-7.9-20.1-7.9-28,0q-40.65,58.5-66.9,133.8-40.65-76.2-86.4-133.8-12.75-11.85-27.9,0C1376.2,369.1,1357,568.9,1366,742Zm-132.3,318.8v39.6a340.83,340.83,0,0,1,25.4-25.6c5.1-4.5,10.2-6.8,15.2-6.8,4.5,0,9.9,2.3,16.1,6.8,72.3,63.8,108.4,164.3,108.4,268.2q0,149.85-110.9,269.3c-5.1,5.1-9.9,7.6-14.4,7.6-5.1,0-9.9-2.5-14.4-7.6q-108.45-106-113.2-247.7l-.2.3V999.3c0-52.2,55.8-110.9,111.8-116l81.7,61c42,31.3,99.7,19.6,87.8-46.2l86.9,20.2c8.7,106.2-93.2,89.4-167.3,54C1283.4,942.2,1233.7,987.4,1233.7,1060.8Zm199.5,532.8,85.5,26.3c3.1-126.2-4.1-312.9,68.6-422.6,4.6-7.3,15.8-11.1,22-3.4q16,17.7,34.7,63.5c-29,109.7-33.5,223.5-30.5,336.2l86.4,26.3c2.9-129.4,1.9-300,69.4-415,4.1-7.1,15.9-8.3,21.2-1.7,79,108.1,57.9,245.1-39,335.4l63.5,78.8c148-139.4,45.9-412.7-61.8-542.8-10.7-7.9-20.1-7.9-28,0q-40.65,58.5-66.9,133.8-40.65-76.2-86.4-133.8-12.75-11.85-27.9,0C1443.4,1220.7,1424.2,1420.5,1433.2,1593.6Zm-329.8-.4-85.5,26.3q-3.45-149.85-13.6-227-16-117.75-55.9-184.6c-2.3-4-5.9-5.9-11-5.9q-6.75-.9-10.2,4.2-47.4,65.25-47.4,140.6,0,111.75,86.4,192.2l-63.5,77.9q-72-67.8-72-189.7,0-89,37.7-184.2t99.5-169c7.3-7.3,14.7-7.3,22,0q114.3,162.6,114.3,457.3Q1104.2,1561.9,1103.4,1593.2Zm186.7-399.3c-60.3,59.5-90.6,149.1-96.8,242.3q-4.2,62.7,32.2,62.7c9,0,18.1-3.1,27.1-9.3,71-55.4,104.3-178.3,91-277.5C1338.1,1170.8,1311.8,1172.5,1290.1,1193.9ZM496.2,938c54.2,164.1,126.2,28.4,227,19.5V891.8C641.4,905.1,564.4,920.9,496.2,938Z"/></g></g></svg>